<svg width="289" height="80" viewBox="0 0 289 80" fill="none" xmlns="http://www.w3.org/2000/svg">
<path d="M117.444 0.509766C120.041 0.509766 122.206 2.4978 122.427 5.08496L122.778 9.2041H122.863C123.128 9.2041 123.384 9.30953 123.571 9.49707L125.297 11.2227C125.927 11.8526 125.481 12.9297 124.59 12.9297H123.097L123.944 22.8662H133.214L130.109 25.3506L128.246 26.5928H124.263L125.005 35.2871H130.02L130.522 33.5283C130.645 33.099 131.038 32.8028 131.484 32.8027H134.944C135.391 32.8029 135.783 33.0991 135.905 33.5283L136.408 35.2871H137.489C137.906 35.2871 138.279 35.5453 138.426 35.9355L140.248 40.7959L141.287 34.0449L141.79 30.7734C141.94 29.7976 142.779 29.0762 143.767 29.0762H155.726L156.082 26.2266C156.145 25.7263 156.57 25.3508 157.074 25.3506H159.383C159.717 25.3506 160.029 25.5177 160.215 25.7959L160.992 26.9619C161.102 27.1261 161.16 27.3193 161.16 27.5166V28.9941C161.16 29.0491 161.155 29.104 161.146 29.1582L160.679 31.9668C160.598 32.449 160.18 32.8027 159.691 32.8027H158.782L159.134 43.3604H159.918L160.539 45.2227H169.119L169.906 43.4863C169.944 43.4025 169.971 43.3137 169.984 43.2227L170.476 39.9785V35.1533C170.476 34.9731 170.621 34.8274 170.802 34.8271C170.982 34.8271 171.129 34.6805 171.129 34.5V6.47754C171.129 5.92545 171.577 5.47758 172.129 5.47754H177.974C178.526 5.47766 178.973 5.9255 178.974 6.47754V7.49219C178.974 7.85322 178.68 8.14551 178.319 8.14551C177.958 8.14571 177.666 8.4389 177.666 8.7998V16.1631C177.666 16.524 177.958 16.8172 178.319 16.8174C178.68 16.8174 178.973 17.1098 178.974 17.4707V18.4102C178.974 18.6718 178.871 18.9235 178.687 19.1104L177.952 19.8604C177.769 20.0473 177.666 20.2989 177.666 20.5605V24.876C177.666 25.2518 177.877 25.5958 178.212 25.7666L178.428 25.877C178.762 26.0477 178.973 26.3919 178.974 26.7676V28.6211L180.224 38.3818C180.255 38.6281 180.377 38.8524 180.563 39.0127H188.033C188.585 39.0129 189.033 39.4606 189.033 40.0127V45.2227H190.348V40.0127C190.348 39.4605 190.795 39.0128 191.348 39.0127H191.59V34.0449L193.753 24.8496C193.654 24.8102 193.554 24.7692 193.453 24.7295C189.727 24.1085 187.864 22.8664 187.864 18.5195C187.864 16.1187 189.189 14.1719 191.59 14.1719C195.316 14.1719 202.536 15.9568 202.768 18.5195C203.23 23.593 203.98 26.5512 204.123 28.0059L204.631 29.6973L204.838 32.8027H214.24C214.629 32.8029 214.983 33.0289 215.146 33.3818L217.761 39.0127H229.472L229.983 34.9209C230.046 34.4205 230.471 34.045 230.976 34.0449H234.061C234.614 34.0452 235.061 34.4928 235.061 35.0449V46.4648H236.303L236.92 52.6396L287.227 53.2959H288.469V60.1279H287.227V66.3379L286.605 68.8213L285.984 71.3057L282.259 71.3965V75.0322L281.017 77.5156L279.774 80H273.564V72.7959L271.08 73.79L259.739 74.168L258.66 75.0322L246.995 75.4209L241.271 80L222.641 79.3789V78.7578L16.4628 77.5156L20.081 71.1826L0.937439 49.5703L38.8193 50.0625V48.3281H32.6093V44.6016H40.0615L40.6826 43.9814H45.6865C47.051 42.4571 49.0333 41.4971 51.2402 41.4971C55.3558 41.4972 58.6923 44.2125 58.6923 48.3281C58.6923 49.0518 58.674 49.7142 58.6435 50.3203L61.1992 50.3535L61.7558 48.7207C62.4635 46.642 64.4448 45.268 66.6396 45.334L80.5468 45.7539C82.3856 45.8094 84.0453 46.8703 84.8681 48.5156L85.9472 50.6748L97.4413 50.8242L98.4374 43.3604H96.5742V41.4971L97.1953 40.2549V36.5283H108.161L109.076 26.5928H103.163C102.611 26.5926 102.163 26.1448 102.163 25.5928V22.624C102.163 22.072 102.611 21.6242 103.163 21.624H106.351C106.809 21.624 107.21 21.9367 107.321 22.3818L107.442 22.8662H109.42L110.335 12.9297H109.374C108.822 12.9297 108.374 12.482 108.374 11.9297V10.2041C108.374 9.65182 108.822 9.2041 109.374 9.2041H110.678L111.06 5.05078C111.298 2.4782 113.455 0.50987 116.039 0.509766H117.444Z" fill="#F5EFE7"/>
</svg>
