<svg width="48" height="97" viewBox="0 0 48 97" fill="none" xmlns="http://www.w3.org/2000/svg">
<path d="M23.9748 0.0478516C33.2191 0.0478516 40.7139 7.54182 40.714 16.7861C40.714 20.4031 39.5648 23.7512 37.6144 26.4883C43.7818 34.3385 47.8197 46.0705 47.4093 54.2803C47.4093 60.9679 44.428 69.1462 39.7619 75.4893C42.8225 76.979 44.6787 78.89 44.7277 80.9775C44.9715 82.4926 44.9679 84.6732 44.7306 87.7578C44.7303 92.5647 35.1383 96.4618 23.3058 96.4619C11.4732 96.4619 1.88037 92.5648 1.88003 87.7578C1.56684 84.9391 1.5851 82.7876 1.88296 81.1641C1.882 81.1302 1.88003 81.0964 1.88003 81.0625C1.88003 78.8342 3.94205 76.8024 7.33217 75.2627C3.10283 68.9523 0.541159 60.8886 0.541159 54.2803C-0.28095 45.6467 3.86271 33.9843 10.1798 26.2676C8.3238 23.5722 7.23647 20.3062 7.23647 16.7861C7.23658 7.54192 14.7305 0.0480162 23.9748 0.0478516Z" fill="#F5EFE7"/>
</svg>
