<svg width="101" height="107" viewBox="0 0 101 107" fill="none" xmlns="http://www.w3.org/2000/svg">
<path d="M50.8749 0.97937C64.6821 0.97937 75.8749 12.1723 75.8749 25.9794C75.8749 33.2042 72.8084 39.7112 67.9081 44.2753C70.4104 43.4346 73.0895 42.9794 75.8749 42.9794C89.6821 42.9794 100.875 54.1723 100.875 67.9794C100.875 81.7865 89.6821 92.9794 75.8749 92.9794C67.9855 92.9794 60.9509 89.3237 56.3691 83.6151C56.5802 85.6923 56.6473 88.7548 57.0859 90.8544C57.6458 93.5345 60.3056 97.2311 61.0576 98.9344C63.9118 101.197 65.8749 103.273 65.8749 103.979C65.8749 108.479 55.2409 103.479 51.3749 103.479C47.5089 103.479 37.3749 108.479 36.8749 104.479C36.875 103.803 39.4294 101.028 42.4892 98.3729C43.3394 96.5979 45.8347 93.0654 46.3749 90.4794C46.7836 88.5232 46.8666 85.7309 47.0468 83.6786C46.8373 83.2152 46.6243 82.734 46.4111 82.2362C41.8955 88.7284 34.3825 92.9794 25.8749 92.9794C12.0678 92.9794 0.874939 81.7865 0.874939 67.9794C0.874939 54.1723 12.0678 42.9794 25.8749 42.9794C28.6601 42.9794 31.3388 43.4348 33.8408 44.2753C28.9408 39.7112 25.8749 33.2039 25.8749 25.9794C25.8749 12.1723 37.0678 0.97937 50.8749 0.97937Z" fill="#F5EFE7"/>
</svg>
