<svg width="106" height="121" viewBox="0 0 106 121" fill="none" xmlns="http://www.w3.org/2000/svg">
<path d="M51.9399 120.353L1.08051 90.9897L20.6635 79.3032L51.9399 120.353ZM104.821 90.8521L54.1411 120.113L84.602 79.1792L104.821 90.8521ZM52.9526 120.033L21.7807 79.1187H83.4018L52.9526 120.033ZM20.4135 78.2622L20.5629 78.1978L0.437927 90.2085V31.6519L20.4135 78.2622ZM105.227 89.9312L84.77 78.1206L105.227 33.1069V89.9312ZM83.5766 78.1187H22.0883L52.8325 24.8687L83.5766 78.1187ZM21.2231 77.6147L1.14301 30.7603L52.184 23.9897L21.2231 77.6147ZM105.219 30.7075L84.1381 77.0933L53.4213 23.8882L105.219 30.7075ZM59.5629 52.1245C58.2422 52.1246 57.1011 52.4153 56.1401 52.9976C55.1837 53.5799 54.4451 54.4301 53.9243 55.5474C53.4082 56.6648 53.1477 58.0241 53.143 59.6245C53.1383 61.22 53.3967 62.588 53.9174 63.729C54.4383 64.8701 55.1789 65.744 56.1401 66.3501C57.1012 66.9561 58.2421 67.2613 59.5629 67.2661C60.8839 67.2661 62.0235 66.9661 62.9799 66.3647C63.941 65.7587 64.6818 64.8847 65.2026 63.7437C65.7234 62.6026 65.9838 61.2295 65.9838 59.6245C65.9886 58.029 65.7302 56.6725 65.2094 55.5552C64.6886 54.4379 63.9478 53.5878 62.9868 53.0054C62.0256 52.4182 60.8839 52.1245 59.5629 52.1245ZM45.5971 52.1245C44.4702 52.1245 43.4869 52.3235 42.6489 52.7212C41.8111 53.1189 41.1628 53.6869 40.7036 54.4253C40.2443 55.1639 40.0141 56.0451 40.0141 57.0679H43.7641C43.7641 56.6607 43.8402 56.3148 43.9916 56.0308C44.1431 55.7468 44.3559 55.5311 44.6303 55.3843C44.9097 55.2375 45.2325 55.1646 45.5971 55.1646C45.9615 55.1646 46.2837 55.2376 46.5629 55.3843C46.8421 55.5263 47.0601 55.7297 47.2162 55.9946C47.3772 56.2597 47.4574 56.5797 47.4575 56.9536C47.4575 57.2945 47.3866 57.6049 47.2446 57.8843C47.1073 58.1636 46.9082 58.4356 46.6479 58.7007C46.3922 58.9611 46.0839 59.2413 45.7241 59.5396L40.2983 64.0278V66.8687H51.4633V63.7153H45.7817V63.6304L47.145 62.4937C48.2529 61.5704 49.1071 60.7745 49.7084 60.1069C50.3098 59.4393 50.7264 58.831 50.9584 58.2817C51.1904 57.7278 51.3071 57.1715 51.3071 56.6128C51.307 55.7085 51.0727 54.9199 50.6039 54.2476C50.14 53.5753 49.4794 53.0543 48.6225 52.6851C47.7703 52.3111 46.7617 52.1246 45.5971 52.1245ZM59.5629 55.3062C60.0175 55.3062 60.4206 55.4603 60.7709 55.7681C61.1212 56.0711 61.3954 56.54 61.5942 57.1743C61.793 57.8088 61.893 58.6255 61.893 59.6245C61.8977 61.1536 61.6799 62.2758 61.2397 62.9907C60.8041 63.7009 60.2447 64.0562 59.5629 64.0562C59.1086 64.0561 58.704 63.8997 58.3491 63.5874C57.9987 63.2749 57.7237 62.7916 57.5248 62.1382C57.3261 61.4801 57.2291 60.6422 57.2338 59.6245C57.2433 58.1285 57.4632 57.0346 57.894 56.3433C58.3248 55.6521 58.8813 55.3063 59.5629 55.3062ZM52.3325 22.9614L1.05023 29.7642L52.3325 0.156738V22.9614ZM104.29 29.5776L53.3325 22.8687V0.156738L104.29 29.5776Z" fill="#F5EFE7"/>
</svg>
