<svg width="121" height="121" viewBox="0 0 121 121" fill="none" xmlns="http://www.w3.org/2000/svg">
<path d="M110.224 0.25C115.747 0.250009 120.224 4.72716 120.224 10.25V110.25C120.224 115.773 115.747 120.25 110.224 120.25H10.2229C4.7004 120.25 0.22314 115.772 0.2229 110.25V10.25C0.222902 4.7273 4.70025 0.25023 10.2229 0.25H110.224ZM25.8235 81.8496C18.7543 81.8496 13.0238 87.5803 13.0237 94.6494C13.0237 101.719 18.7542 107.449 25.8235 107.449C32.8928 107.449 38.6233 101.719 38.6233 94.6494C38.6232 87.5803 32.8927 81.8496 25.8235 81.8496ZM94.6233 81.8496C87.5543 81.8498 81.8236 87.5804 81.8235 94.6494C81.8235 101.718 87.5542 107.449 94.6233 107.449C101.693 107.449 107.424 101.719 107.424 94.6494C107.424 87.5803 101.692 81.8496 94.6233 81.8496ZM60.2239 47.4502C53.1546 47.4502 47.4231 53.1808 47.4231 60.25C47.4232 67.3191 53.1547 73.0498 60.2239 73.0498C67.2929 73.0496 73.0235 67.319 73.0237 60.25C73.0237 53.1809 67.293 47.4504 60.2239 47.4502ZM25.8235 12.25C18.7542 12.25 13.0237 17.9806 13.0237 25.0498C13.0237 32.119 18.7542 37.8496 25.8235 37.8496C32.8927 37.8496 38.6233 32.119 38.6233 25.0498C38.6233 17.9806 32.8927 12.25 25.8235 12.25ZM94.6233 12.25C87.5542 12.2502 81.8236 17.9808 81.8235 25.0498C81.8235 32.1189 87.5542 37.8494 94.6233 37.8496C101.693 37.8496 107.424 32.119 107.424 25.0498C107.424 17.9806 101.693 12.25 94.6233 12.25Z" fill="#F5EFE7"/>
</svg>
