<svg width="121" height="121" viewBox="0 0 121 121" fill="none" xmlns="http://www.w3.org/2000/svg">
<path d="M110.235 0.25C115.757 0.250131 120.235 4.72723 120.235 10.25V110.25C120.235 115.773 115.757 120.25 110.235 120.25H10.2394C4.71656 120.25 0.23941 115.773 0.23941 110.25V10.25C0.239411 4.72715 4.71656 0.25 10.2394 0.25H110.235ZM25.838 81.8496C18.7691 81.8496 13.0382 87.5812 13.0382 94.6504C13.0384 101.719 18.7692 107.45 25.838 107.45C32.9069 107.45 38.6377 101.719 38.6378 94.6504C38.6378 87.5811 32.907 81.8496 25.838 81.8496ZM94.6349 12.25C87.5662 12.2502 81.8362 17.9808 81.8361 25.0498C81.8361 32.1189 87.5661 37.8494 94.6349 37.8496C101.704 37.8496 107.435 32.1191 107.435 25.0498C107.435 17.9806 101.704 12.25 94.6349 12.25Z" fill="#F5EFE7"/>
</svg>
