<svg width="121" height="121" viewBox="0 0 121 121" fill="none" xmlns="http://www.w3.org/2000/svg">
<path d="M110.223 0.25C115.746 0.250042 120.223 4.72718 120.223 10.25V110.25C120.223 115.773 115.746 120.25 110.223 120.25H10.2228C4.69999 120.25 0.222839 115.773 0.222839 110.25V10.25C0.22284 4.72715 4.69999 0.25 10.2228 0.25H110.223ZM25.8224 81.8496C18.7533 81.8498 13.0226 87.5812 13.0226 94.6504C13.0228 101.719 18.7535 107.45 25.8224 107.45C32.8916 107.45 38.623 101.719 38.6232 94.6504C38.6232 87.5811 32.8917 81.8496 25.8224 81.8496ZM94.6232 81.8496C87.554 81.8496 81.8224 87.5811 81.8224 94.6504C81.8226 101.719 87.5541 107.45 94.6232 107.45C101.692 107.45 107.423 101.719 107.423 94.6504C107.423 87.5813 101.692 81.8498 94.6232 81.8496ZM25.8224 12.25C18.7534 12.2501 13.0227 17.9807 13.0226 25.0498C13.0226 32.119 18.7533 37.8495 25.8224 37.8496C32.8917 37.8496 38.6223 32.1191 38.6223 25.0498C38.6222 17.9806 32.8917 12.25 25.8224 12.25ZM94.6232 12.25C87.554 12.25 81.8225 17.9806 81.8224 25.0498C81.8224 32.1191 87.554 37.8496 94.6232 37.8496C101.692 37.8494 107.423 32.1189 107.423 25.0498C107.423 17.9808 101.692 12.2502 94.6232 12.25Z" fill="#F5EFE7"/>
</svg>
