<svg width="121" height="121" viewBox="0 0 121 121" fill="none" xmlns="http://www.w3.org/2000/svg">
<path d="M110.225 0.25C115.748 0.25 120.225 4.72738 120.225 10.25V110.25C120.225 115.773 115.748 120.25 110.225 120.25H10.2249C4.70201 120.25 0.223877 115.773 0.223877 110.25V10.251C0.223877 4.72829 4.70125 0.250263 10.2239 0.25H110.225ZM25.8245 81.8506C18.7552 81.8506 13.0247 87.5812 13.0247 94.6504C13.0248 101.719 18.7553 107.45 25.8245 107.45C32.8936 107.45 38.6241 101.719 38.6243 94.6504C38.6243 87.5812 32.8937 81.8506 25.8245 81.8506ZM94.6243 81.8506C87.5552 81.8508 81.8245 87.5813 81.8245 94.6504C81.8246 101.719 87.5553 107.45 94.6243 107.45C101.693 107.45 107.425 101.719 107.425 94.6504C107.425 87.5812 101.694 81.8506 94.6243 81.8506ZM25.8245 47.4502C18.7553 47.4502 13.0248 53.1809 13.0247 60.25C13.0247 67.3192 18.7552 73.0498 25.8245 73.0498C32.8937 73.0498 38.6243 67.3192 38.6243 60.25C38.6241 53.1809 32.8936 47.4502 25.8245 47.4502ZM94.6243 47.4502C87.5553 47.4504 81.8246 53.181 81.8245 60.25C81.8245 67.3191 87.5552 73.0496 94.6243 73.0498C101.694 73.0498 107.425 67.3192 107.425 60.25C107.425 53.1809 101.693 47.4502 94.6243 47.4502ZM25.8245 12.25C18.7552 12.25 13.0247 17.9816 13.0247 25.0508C13.0249 32.1198 18.7553 37.8506 25.8245 37.8506C32.8936 37.8506 38.624 32.1198 38.6243 25.0508C38.6243 17.9816 32.8937 12.25 25.8245 12.25ZM94.6243 12.25C87.5552 12.2502 81.8245 17.9817 81.8245 25.0508C81.8247 32.1197 87.5553 37.8503 94.6243 37.8506C101.693 37.8506 107.425 32.1198 107.425 25.0508C107.425 17.9816 101.694 12.25 94.6243 12.25Z" fill="#F5EFE7"/>
</svg>
