<svg width="121" height="121" viewBox="0 0 121 121" fill="none" xmlns="http://www.w3.org/2000/svg">
<path d="M110.223 0.25C115.746 0.25 120.223 4.72715 120.223 10.25V110.25C120.223 115.773 115.746 120.25 110.223 120.25H10.2346C4.71185 120.25 0.234558 115.773 0.234558 110.25V10.25C0.234559 4.72725 4.71185 0.250165 10.2346 0.25H110.223ZM25.8322 81.8496C18.7637 81.8497 13.0334 87.5812 13.0334 94.6504C13.0336 101.719 18.7638 107.45 25.8322 107.45C32.9007 107.45 38.6309 101.719 38.631 94.6504C38.631 87.5811 32.9008 81.8496 25.8322 81.8496ZM60.2287 47.4502C53.1603 47.4504 47.4299 53.1809 47.4299 60.25C47.4299 67.3191 53.1603 73.0496 60.2287 73.0498C67.2973 73.0498 73.0275 67.3192 73.0275 60.25C73.0275 53.1808 67.2972 47.4502 60.2287 47.4502ZM94.6262 12.25C87.5577 12.25 81.8274 17.9806 81.8273 25.0498C81.8273 32.1191 87.5576 37.8496 94.6262 37.8496C101.695 37.8494 107.425 32.1189 107.425 25.0498C107.425 17.9808 101.694 12.2502 94.6262 12.25Z" fill="#F5EFE7"/>
</svg>
