<svg width="161" height="81" viewBox="0 0 161 81" fill="none" xmlns="http://www.w3.org/2000/svg">
<path d="M160.797 70.5049C160.797 76.0277 156.32 80.5049 150.797 80.5049L10.7968 80.5049C5.27397 80.5049 0.796811 76.0277 0.796811 70.5049L0.796814 10.5049C0.796814 4.98203 5.27397 0.504876 10.7968 0.504876L150.797 0.504882C156.32 0.504883 160.797 4.98204 160.797 10.5049L160.797 70.5049ZM42.7968 40.0381C42.7967 35.3254 38.9763 31.5049 34.2636 31.5049C29.5508 31.5049 25.7305 35.3253 25.7304 40.0381C25.7304 44.7509 29.5508 48.5713 34.2636 48.5713C38.9764 48.5712 42.7968 44.7509 42.7968 40.0381ZM70.7968 7.50488C70.7968 5.84803 69.4537 4.50488 67.7968 4.50488C66.14 4.50488 64.7968 5.84803 64.7968 7.50488L64.7968 73.5049C64.7968 75.1617 66.14 76.5049 67.7968 76.5049C69.4537 76.5049 70.7968 75.1617 70.7968 73.5049L70.7968 7.50488ZM106.396 17.5713C106.396 12.8586 102.576 9.03808 97.8632 9.03808C93.1506 9.03822 89.3302 12.8587 89.33 17.5713C89.33 22.284 93.1505 26.1043 97.8632 26.1045C102.576 26.1045 106.396 22.2841 106.396 17.5713ZM106.396 63.4385C106.396 58.7256 102.576 54.9053 97.8632 54.9053C93.1505 54.9054 89.33 58.7257 89.33 63.4385C89.3302 68.1511 93.1506 71.9715 97.8632 71.9717C102.576 71.9717 106.396 68.1512 106.396 63.4385ZM129.33 40.5049C129.33 35.7921 125.51 31.9717 120.797 31.9717C116.084 31.9717 112.264 35.7921 112.264 40.5049C112.264 45.2177 116.084 49.0381 120.797 49.0381C125.51 49.0381 129.33 45.2177 129.33 40.5049ZM152.797 17.5713C152.797 12.8586 148.976 9.03816 144.264 9.03809C139.551 9.03809 135.731 12.8586 135.73 17.5713C135.73 22.2841 139.551 26.1045 144.264 26.1045C148.976 26.1044 152.797 22.2841 152.797 17.5713ZM152.797 63.4385C152.797 58.7257 148.976 54.9053 144.264 54.9053C139.551 54.9053 135.73 58.7256 135.73 63.4385C135.731 68.1512 139.551 71.9717 144.264 71.9717C148.976 71.9716 152.797 68.1511 152.797 63.4385Z" fill="#F5EFE7"/>
</svg>
