<svg width="131" height="131" viewBox="0 0 131 131" fill="none" xmlns="http://www.w3.org/2000/svg">
<path d="M65.1968 0.254883C101.095 0.254883 130.197 29.3564 130.197 65.2549C130.197 101.153 101.095 130.255 65.1968 130.255C29.2983 130.255 0.196777 101.153 0.196777 65.2549C0.196777 29.3564 29.2983 0.254883 65.1968 0.254883ZM65.1968 12.2549C35.9257 12.2549 12.1968 35.9838 12.1968 65.2549C12.1968 94.526 35.9257 118.255 65.1968 118.255C94.4679 118.255 118.197 94.526 118.197 65.2549C118.197 35.9838 94.4679 12.2549 65.1968 12.2549ZM65.1968 17.2549C91.7064 17.2549 113.197 38.7452 113.197 65.2549C113.197 91.7646 91.7064 113.255 65.1968 113.255C38.6871 113.255 17.1968 91.7646 17.1968 65.2549C17.1968 38.7452 38.6871 17.2549 65.1968 17.2549Z" fill="#F5EFE7"/>
</svg>
