<svg width="114" height="135" viewBox="0 0 114 135" fill="none" xmlns="http://www.w3.org/2000/svg">
<path d="M44.1241 0.5C48.6241 3.49999 51.6154 9 56.6153 12.5C56.6153 12.5023 56.6144 12.5046 56.6144 12.5068C69.3089 12.8082 108.124 24.6664 108.124 75C108.124 75.5135 108.049 75.9478 107.91 76.3105C107.407 86.7606 101.823 99.442 101.124 105.5C101.124 105.505 101.123 105.51 101.123 105.516C104.22 106.02 108.785 109.514 111.117 113.562C114.007 118.578 113.693 134.359 112.673 134.505L112.624 134.5H14.6241L14.5743 134.497C13.5559 134.16 14.4634 116.594 17.9855 112C20.3517 108.914 24.2007 106.411 27.2335 105.604C30.1161 94.2208 42.401 81.0646 54.2511 72.3105C58.9793 65.8431 58.3491 62.5163 57.0284 60.8047C51.1575 67.4976 43.7318 72.4999 37.1241 72.5C33.0795 72.5 35.1243 72.2459 28.8146 78.5986C22.5047 84.9512 0.901296 85.5699 0.624132 69.5C0.347054 53.43 7.12438 63.5 12.6983 45.2305C18.2456 33.558 24.1433 22.3377 31.1681 16.7998C31.0648 15.4023 33.3008 12.9103 33.6241 10C36.1241 3.5 37.6242 1 44.1241 0.5Z" fill="#F5EFE7"/>
</svg>
