<svg width="109" height="101" viewBox="0 0 109 101" fill="none" xmlns="http://www.w3.org/2000/svg">
<path d="M53.835 0.771116C64.8349 -0.228855 72.3349 11.1062 72.335 20.7711C75.068 23.0486 84.4398 26.9864 87.5987 28.8033C104.553 33.3866 112.126 44.8412 106.334 50.2711C101.076 54.0029 94.0473 55.9484 86.7969 56.8932C88.8685 59.726 90.7016 63.4405 93.335 67.2711C108.124 88.783 110.754 100.405 105.109 100.286L104.835 100.271H71.0645C70.8944 100.287 70.7267 100.296 70.5626 100.296C67.3348 99.2719 67.335 97.7711 65.835 95.2711C60.2697 85.9956 56.4195 80.3346 54.3409 77.0114C52.0634 80.3173 48.1107 85.9524 42.835 95.2477C41.3819 97.8079 40.3979 99.6529 38.5196 100.22L38.335 100.271H3.83503L3.55866 100.285C-2.12329 100.376 -0.691307 87.8764 15.335 67.2711C17.3057 64.7373 19.4352 60.1432 22.3477 56.6119C12.3472 55.6288 3.16906 53.2212 0.33503 47.7711C-2.73072 40.2237 16.8998 28.4496 35.8721 21.316C37.0019 8.10289 44.2793 0.771116 53.835 0.771116Z" fill="#F5EFE7"/>
</svg>
