<svg width="145" height="107" viewBox="0 0 145 107" fill="none" xmlns="http://www.w3.org/2000/svg">
<path d="M27.1155 1.6051C27.1157 -0.394753 29.1155 0.105102 31.1155 0.605103C33.9899 2.0425 43.7465 11.1378 44.5599 13.3551C50.7481 19.2404 56.4071 28.4475 66.1155 33.6051C67.1974 33.6843 68.1313 33.8494 68.9271 34.0856C72.3355 33.394 75.7573 33.1051 79.1155 33.1051H107.695C109.424 32.7562 111.276 32.6051 113.116 32.6051C119.081 32.6051 121.173 30.5539 122.329 28.4108C122.246 27.14 122.185 25.7102 122.116 24.1051C122.116 20.7914 123.616 17.1051 128.116 18.1051C131.429 18.1051 134.116 20.7914 134.116 24.1051C133.436 27.2743 134.295 30.4435 135.02 32.9166C138.646 36.9543 141.116 44.9278 141.116 54.1051C141.116 63.6976 144.178 84.0213 143.464 94.5201C143.879 95.5418 144.116 96.4301 144.116 97.1051C144.615 102.605 134.616 102.105 129.616 102.105C126.116 102.105 124.116 97.0233 124.116 92.6051C124.515 90.007 124.596 87.4089 124.9 85.194C123.554 83.8226 121.991 82.2931 120.116 80.6051C117.701 78.6164 113.632 76.2635 109.719 73.7203C101.801 75.2509 96.5944 78.0179 91.1155 80.1051C82.2852 83.4689 72.0839 82.1282 63.095 78.6178C43.1204 91.6185 50.6086 112.103 30.1155 105.605C24.1156 102.105 34.1154 80.4565 34.1155 74.1051C34.1155 73.7283 34.137 73.3539 34.179 72.983C32.7212 70.4049 34.6825 60.5035 35.1155 56.6051C35.3184 52.5475 35.1867 48.9838 35.1605 46.1813C33.7843 45.1572 32.4248 43.9688 31.0921 42.6012C22.61 41.1264 19.6129 52.6055 16.6155 53.1051C11.645 53.1051 0.11576 44.6051 0.61554 34.1051C0.197949 32.0172 3.96403 30.6252 11.6253 23.233C14.6652 17.2706 19.9773 10.9542 25.2825 8.74963C26.3175 7.51437 27.3076 5.44556 27.1155 1.6051Z" fill="#F5EFE7"/>
</svg>
