<svg width="237" height="103" viewBox="0 0 237 103" fill="none" xmlns="http://www.w3.org/2000/svg">
<path d="M161.092 4.96176C163.113 -1.03445 167.272 -0.126524 174.585 1.26645C179.527 2.09022 189.142 4.93817 196.808 8.71078C212.698 15.8273 234.625 35.8449 236.584 68.7655C236.584 72.7001 230.2 76.5844 221.378 79.578C219.748 92.6502 208.599 102.766 195.085 102.766C183.387 102.766 173.459 95.1855 169.946 84.6688L60.5071 83.7616C57.2735 94.7464 47.1171 102.766 35.0853 102.766C22.8996 102.766 12.6363 94.5407 9.54131 83.3397L1.60869 83.2743C1.04734 83.2696 0.599808 82.8041 0.61748 82.243L1.09307 67.1327C0.987117 62.3507 1.96133 56.0496 4.58428 47.7664C8.88027 34.2001 12.1817 31.7664 19.0853 31.7664C19.4079 31.7665 19.7277 31.7776 20.0442 31.8016L96.8011 25.2899C96.9863 25.2742 97.1636 25.2073 97.3128 25.0965L113.28 13.2362C113.878 12.7917 114.734 13.1345 114.861 13.869L116.866 25.4998L122.569 22.9471L118.209 10.7616C117.865 9.79725 118.367 8.73549 119.331 8.39047C120.296 8.04568 121.357 8.54824 121.702 9.51254L131.482 36.8436C131.827 37.808 131.324 38.8696 130.36 39.2147C129.395 39.5596 128.334 39.0579 127.989 38.0936L123.877 26.6043L118.196 29.1483L120.529 34.1463C120.566 34.2259 120.614 34.2999 120.67 34.367L128.505 43.6717C128.558 43.734 128.618 43.79 128.684 43.8377L135.58 48.828C139.326 48.6209 143.653 48.4686 147.585 47.7664C149.955 47.766 153.426 44.64 157.017 40.7127C156.506 37.1458 156.322 32.3135 156.584 25.7664C156.584 16.9451 158.218 9.39463 161.092 4.96176Z" fill="#F5EFE7"/>
</svg>
