<svg width="127" height="131" viewBox="0 0 127 131" fill="none" xmlns="http://www.w3.org/2000/svg">
<path d="M63.0922 0.254883C68.4843 0.254883 73.7231 0.911899 78.7328 2.14941L75.1645 15.4678C83.7284 17.7625 91.5379 22.2709 97.8071 28.54L108.042 18.3037C116.337 26.247 122.53 36.3665 125.706 47.7451L112.879 51.1826C115.174 59.7465 115.174 68.7633 112.879 77.3271L126.197 80.8955C123.431 92.0897 117.766 102.14 110.042 110.205L100.807 100.97C94.5378 107.239 86.7284 111.747 78.1645 114.042L81.7778 127.528C75.8598 129.301 69.5873 130.255 63.0922 130.255C57.1159 130.255 51.3281 129.448 45.8315 127.938L49.02 116.042C40.456 113.747 32.6466 109.239 26.3774 102.97L17.6332 111.713C9.37051 103.627 3.25721 93.3542 0.22699 81.8311L13.3051 78.3271C11.0105 69.7634 11.0105 60.7464 13.3051 52.1826L0.22699 48.6777C3.19557 37.3896 9.1222 27.3011 17.1303 19.293L26.3774 28.54C32.6466 22.2708 40.456 17.7625 49.02 15.4678L45.5825 2.64062C51.1532 1.08605 57.0256 0.254908 63.0922 0.254883ZM63.0922 18.2549C37.135 18.255 16.0922 39.2976 16.0922 65.2549C16.0922 91.2122 37.135 112.255 63.0922 112.255C89.0496 112.255 110.092 91.2123 110.092 65.2549C110.092 39.2975 89.0496 18.2549 63.0922 18.2549ZM63.0922 23.2549C86.2882 23.2549 105.092 42.0589 105.092 65.2549C105.092 88.4508 86.2882 107.255 63.0922 107.255C39.8964 107.255 21.0922 88.4508 21.0922 65.2549C21.0922 42.059 39.8964 23.255 63.0922 23.2549Z" fill="#F5EFE7"/>
</svg>
