<svg width="175" height="123" viewBox="0 0 175 123" fill="none" xmlns="http://www.w3.org/2000/svg">
<path d="M105.332 0.484375C109.988 0.484463 135.779 2.30038 139.036 6.61328C139.137 6.70261 139.22 6.85185 139.287 7.05859C139.319 7.14304 139.342 7.22821 139.356 7.31445C140.168 10.9952 137.499 26.9428 135.502 46.1348C139.275 49.1124 143.094 48.5568 146.187 47.5674C149.221 45.0432 153.12 43.5244 157.375 43.5244C167.04 43.5244 174.875 51.3604 174.875 61.0254C174.875 70.6901 167.04 78.5244 157.375 78.5244C153.284 78.5244 149.521 77.1208 146.541 74.7686C143.355 73.6407 139.239 72.6836 135.162 75.793C136.387 95.7994 138.39 111.571 137.51 112.051C135.815 116.776 111.899 120.524 107.105 120.524C102.135 120.524 98.1054 116.495 98.1054 111.524C98.1056 110.989 98.4968 109.37 99.204 106.906C101.447 104.218 102.797 100.759 102.797 96.9844C102.797 88.424 95.8572 81.4844 87.2968 81.4844C78.7364 81.4844 71.7968 88.424 71.7968 96.9844C71.7968 102.248 74.4209 106.898 78.4316 109.699C79.0174 111.712 79.3398 113.043 79.3398 113.525C79.3395 118.496 75.3102 122.525 70.3398 122.525C65.6832 122.525 39.883 120.708 36.6337 116.394C36.533 116.304 36.4495 116.155 36.3828 115.948C36.3513 115.864 36.3286 115.779 36.3144 115.693C35.5041 112.009 38.1716 96.0629 40.1689 76.873C36.396 73.8967 32.5774 74.4512 29.4843 75.4404C26.4511 77.965 22.5517 79.4844 18.2968 79.4844C8.63183 79.4844 0.796814 71.6494 0.796814 61.9844C0.796814 52.3194 8.63183 44.4844 18.2968 44.4844C22.3878 44.4844 26.1509 45.8881 29.1308 48.2402C32.3167 49.368 36.4321 50.3249 40.5087 47.2158C39.2844 27.2136 37.2823 11.4437 38.1611 10.958C39.856 6.23252 63.7725 2.48438 68.5663 2.48438C73.5367 2.48461 77.5663 6.51396 77.5663 11.4844C77.5663 12.0972 77.0487 14.1308 76.1347 17.2305C73.4488 20.0176 71.7968 23.808 71.7968 27.9844C71.7968 36.5448 78.7364 43.4844 87.2968 43.4844C95.8572 43.4844 102.797 36.5448 102.797 27.9844C102.797 23.7946 101.134 19.9938 98.4326 17.2041C97.1029 13.0102 96.332 10.2311 96.332 9.48438C96.332 4.51381 100.361 0.484375 105.332 0.484375ZM107.352 81.7539C107.363 81.7198 107.374 81.6855 107.386 81.6514H107.211C107.258 81.6852 107.305 81.7202 107.352 81.7539ZM68.7949 81.2148C68.8222 81.1961 68.8494 81.177 68.8769 81.1582H68.7744C68.7812 81.1771 68.7881 81.196 68.7949 81.2148ZM106.795 41.8506H106.896C106.89 41.8317 106.883 41.8128 106.876 41.7939C106.849 41.8126 106.822 41.832 106.795 41.8506ZM68.2841 41.3574H68.4609C68.4131 41.3234 68.3666 41.2879 68.3193 41.2539C68.3075 41.2884 68.2959 41.3229 68.2841 41.3574Z" fill="#F5EFE7"/>
</svg>
