<svg width="100" height="133" viewBox="0 0 100 133" fill="none" xmlns="http://www.w3.org/2000/svg">
<path d="M57.2999 0.684082C59.8848 0.684082 62.0439 2.65482 62.2794 5.229L63.7843 21.6841H69.3057L72.086 8.39893C72.637 5.76712 75.1708 4.0421 77.8214 4.49463L89.1866 6.43506C91.6869 6.86193 93.4721 9.09357 93.339 11.6265L92.1114 34.9478C92.0889 35.3753 92.0132 35.7799 91.8985 36.1606C90.9612 41.5697 86.2494 45.6841 80.5723 45.6841C80.4436 45.6841 80.3154 45.6785 80.1876 45.6743L86.9083 103.28C89.9978 103.504 94.8916 107.136 97.335 111.377C100.224 116.392 99.9103 132.17 98.8907 132.321L98.8409 132.316H0.840905L0.7911 132.312C-0.226665 131.97 0.680864 114.409 4.20223 109.816C6.24049 107.158 9.37917 104.931 12.1485 103.849L17.4806 45.6812C12.043 45.6386 7.50661 41.8242 6.35653 36.7241C6.11235 36.1894 5.95768 35.5924 5.9161 34.9438L4.36044 10.6753C4.19677 8.12214 5.98697 5.85684 8.50887 5.42627L19.9044 3.48096C22.5223 3.034 25.0335 4.71162 25.6222 7.30127L28.8897 21.6841H34.8145L35.963 5.3335C36.147 2.71474 38.3251 0.68431 40.9503 0.684082H57.2999Z" fill="#F5EFE7"/>
</svg>
