<svg width="115" height="115" viewBox="0 0 115 115" fill="none" xmlns="http://www.w3.org/2000/svg">
<path d="M94.875 0.504883C105.921 0.504883 114.875 9.45919 114.875 20.5049V94.5049C114.875 105.551 105.921 114.505 94.875 114.505H20.875C9.82931 114.505 0.875 105.551 0.875 94.5049V20.5049C0.875 9.45919 9.82931 0.504883 20.875 0.504883H94.875ZM97.6475 82.8115C96.6419 82.8116 95.7188 83.0053 94.8779 83.3916C94.0427 83.778 93.3666 84.3176 92.8496 85.0107C92.3326 85.6982 92.0565 86.4993 92.0225 87.4141H94.0684C94.0968 86.8345 94.2781 86.3398 94.6133 85.9307C94.9485 85.5159 95.3808 85.2013 95.9092 84.9854C96.4432 84.7638 97.0111 84.6524 97.6133 84.6523C98.2553 84.6523 98.8126 84.7752 99.2842 85.0195C99.7613 85.2638 100.13 85.6046 100.392 86.042C100.653 86.4794 100.784 86.9933 100.784 87.584C100.784 88.1976 100.633 88.732 100.332 89.1865C100.037 89.641 99.625 89.9932 99.0967 90.2432C98.574 90.4932 97.9656 90.6182 97.2725 90.6182H95.875V92.4932H97.2725C98.1587 92.4932 98.9089 92.6328 99.5225 92.9111C100.136 93.1895 100.603 93.576 100.921 94.0703C101.239 94.5589 101.397 95.1247 101.397 95.7666C101.397 96.3801 101.233 96.9199 100.903 97.3857C100.574 97.8515 100.119 98.2152 99.54 98.4766C98.9606 98.7379 98.2957 98.8681 97.5459 98.8682C96.8754 98.8682 96.264 98.7577 95.7129 98.5361C95.1618 98.3145 94.7159 98.002 94.375 97.5986C94.0342 97.1896 93.8414 96.7039 93.7959 96.1416H91.6475C91.693 97.0562 91.9721 97.8597 92.4834 98.5527C93.0004 99.2402 93.6963 99.7777 94.5713 100.164C95.4518 100.55 96.4544 100.743 97.5791 100.743C98.7098 100.743 99.7191 100.528 100.605 100.096C101.492 99.6639 102.191 99.0732 102.702 98.3232C103.219 97.5677 103.477 96.7153 103.478 95.7666C103.478 94.6586 103.167 93.7295 102.548 92.9795C101.929 92.2239 101.068 91.7551 99.9658 91.5732V91.4365C100.847 91.1695 101.542 90.6893 102.054 89.9961C102.571 89.303 102.829 88.4652 102.829 87.4824C102.829 86.6586 102.622 85.8909 102.207 85.1807C101.792 84.4706 101.198 83.8995 100.426 83.4678C99.6531 83.0304 98.7268 82.8115 97.6475 82.8115ZM61.4209 21.7324C55.4664 21.7324 50.1705 23.1867 45.5342 26.0957C40.8978 29.0048 37.2499 33.1412 34.5908 38.5049C31.9318 43.8685 30.6026 50.2321 30.6025 57.5957C30.6025 64.9593 31.9318 71.3229 34.5908 76.6865C37.2499 82.0502 40.8978 86.1866 45.5342 89.0957C50.1705 92.0048 55.4664 93.459 61.4209 93.459C64.9434 93.4589 68.2501 92.9484 71.3408 91.9258C74.4545 90.9031 77.2617 89.4135 79.7617 87.459C82.2615 85.4818 84.3525 83.0845 86.0342 80.2666C87.716 77.4484 88.8754 74.2547 89.5117 70.6865H81.0566C80.5566 73.0956 79.6816 75.2321 78.4316 77.0957C77.2044 78.9366 75.7044 80.4939 73.9316 81.7666C72.1818 83.0164 70.2387 83.9594 68.1025 84.5957C65.9663 85.232 63.7389 85.5507 61.4209 85.5508C57.1936 85.5508 53.3635 84.4821 49.9316 82.3457C46.5226 80.2093 43.8069 77.0614 41.7842 72.9023C39.7842 68.7433 38.7842 63.6411 38.7842 57.5957C38.7842 51.5503 39.7842 46.4481 41.7842 42.2891C43.8069 38.13 46.5226 34.9821 49.9316 32.8457C53.3635 30.7093 57.1936 29.6416 61.4209 29.6416C63.7389 29.6416 65.9663 29.9594 68.1025 30.5957C70.2387 31.232 72.1818 32.1864 73.9316 33.459C75.7043 34.709 77.2044 36.2549 78.4316 38.0957C79.6816 39.9366 80.5566 42.0731 81.0566 44.5049H89.5117C88.8754 40.9141 87.7159 37.7211 86.0342 34.9258C84.3524 32.1077 82.2615 29.7211 79.7617 27.7666C77.2617 25.7893 74.4544 24.2893 71.3408 23.2666C68.25 22.2439 64.9435 21.7325 61.4209 21.7324Z" fill="#F5EFE7"/>
</svg>
