<svg width="115" height="115" viewBox="0 0 115 115" fill="none" xmlns="http://www.w3.org/2000/svg">
<path d="M94.875 0.504883C105.921 0.504883 114.875 9.45919 114.875 20.5049V94.5049C114.875 105.551 105.921 114.505 94.875 114.505H20.875C9.82931 114.505 0.875 105.551 0.875 94.5049V20.5049C0.875 9.45919 9.82931 0.504883 20.875 0.504883H94.875ZM95.7041 83.0508L91.3408 85.9482V88.0957L95.6025 85.2666H95.7041V100.505H97.8184V83.0508H95.7041ZM27.3291 92.5049H36.1934L43.2119 72.7324H71.4473L78.4658 92.5049H87.3291L61.6934 22.6865H52.9658L27.3291 92.5049ZM68.7842 65.2324H45.875L57.0566 33.7324H57.6025L68.7842 65.2324Z" fill="#F5EFE7"/>
</svg>
