<svg width="119" height="155" viewBox="0 0 119 155" fill="none" xmlns="http://www.w3.org/2000/svg">
<path d="M59.2503 0C69.1915 0 77.2503 8.05887 77.2503 18C77.2503 24.5727 73.7266 30.3209 68.4662 33.4629C70.3206 48.6596 71.107 77.8294 73.2865 88C76.4944 100.119 82.8221 106.14 84.6917 108.599C102.311 110.021 113.732 114.818 117.25 131C123.75 153.5 91.2829 154.5 59.2503 154.5C1.25047 154 -0.749668 144 1.25033 131C5.47121 114.116 16.6045 109.605 33.9876 108.414C36.0179 105.846 42.1198 99.8262 45.2503 88C47.4288 77.834 48.2151 48.6858 50.0677 33.4834C44.7888 30.3459 41.2503 24.5866 41.2503 18C41.2503 8.05892 49.3093 7.00992e-05 59.2503 0Z" fill="#F5EFE7"/>
</svg>
