<svg width="151" height="71" viewBox="0 0 151 71" fill="none" xmlns="http://www.w3.org/2000/svg">
<path d="M126.076 0.502441C126.628 0.502615 127.076 0.950264 127.076 1.50244V7.50244H146.13C146.661 7.50245 147.098 7.91639 147.128 8.4458L150.015 59.4458C150.048 60.0194 149.592 60.5024 149.017 60.5024H144.076L144.062 61.0171C143.794 66.3007 139.426 70.5023 134.076 70.5024C128.725 70.5024 124.356 66.3008 124.088 61.0171L124.076 60.5024H122.076L122.062 61.0171C121.794 66.3007 117.426 70.5023 112.076 70.5024C106.725 70.5024 102.356 66.3008 102.088 61.0171L102.076 60.5024H48.0757L48.0621 61.0171C47.7942 66.3007 43.4258 70.5023 38.0757 70.5024C32.7255 70.5024 28.3563 66.3008 28.0884 61.0171L28.0757 60.5024H26.0757L26.0621 61.0171C25.7942 66.3007 21.4258 70.5023 16.0757 70.5024C10.7255 70.5024 6.35628 66.3008 6.08842 61.0171L6.07573 60.5024H1.13335C0.558966 60.5023 0.102836 60.0193 0.135298 59.4458L3.02202 8.4458C3.05205 7.91649 3.48992 7.50261 4.02006 7.50244H23.0757V1.50244C23.0757 0.950157 23.5234 0.502441 24.0757 0.502441H126.076Z" fill="#F5EFE7"/>
</svg>
