<svg width="162" height="113" viewBox="0 0 162 113" fill="none" xmlns="http://www.w3.org/2000/svg">
<path d="M43.3834 1.19525C46.5329 -0.379795 51.2568 -1.95381 49.6822 7.49506C49.6822 8.32261 49.0037 9.42937 48.108 10.3652V20.04C53.8184 22.6008 58.6425 28.3924 73.3043 37.415C109.8 32.6547 129.952 34.8231 137.46 39.8622C146.717 44.9835 164.326 71.9065 161.492 98.832C161.492 106.659 155.146 113.005 147.319 113.005C139.491 113.005 133.146 106.659 133.146 98.832C132.125 90.6673 130.113 82.6678 128.448 75.2089C128.439 75.209 128.43 75.2099 128.421 75.2099C124.206 66.7785 115.927 66.0213 108.903 65.6874C96.2449 69.2299 80.3731 71.7191 62.2808 72.0605C53.1663 72.0605 31.118 57.9156 22.9107 46.5087V46.8642H10.313L9.92046 46.8808C7.64068 47.0422 0.863523 48.242 0.863824 45.289C-0.711151 42.1394 -1.0947 36.1529 8.35406 37.7275C9.54426 37.7275 11.3177 39.1256 12.3189 40.5654H19.9449C19.8248 40.0213 19.7613 39.4954 19.7613 38.9902C19.7613 27.6839 28.9267 18.5178 40.233 18.5175C40.7802 18.5175 41.3045 18.5329 41.8082 18.5624V9.06928C41.8078 7.32915 40.234 1.19493 43.3834 1.19525Z" fill="#F5EFE7"/>
</svg>
