<svg width="451" height="451" viewBox="0 0 451 451" fill="none" xmlns="http://www.w3.org/2000/svg">
<circle cx="225.5" cy="225.5" r="225.5" fill="#3E5879"/>
<path d="M84 86C84 83.2386 86.2386 81 89 81H362C364.761 81 367 83.2386 367 86V374C367 376.761 364.761 379 362 379H89C86.2386 379 84 376.761 84 374V86Z" fill="#213555"/>
<path d="M191.2 235H221C223.533 235 225.333 235.6 226.4 236.8C227.6 237.867 228.2 239.667 228.2 242.2V319.8C228.2 324.067 228 328.067 227.6 331.8C227.333 335.4 226.333 339.667 224.6 344.6L214.6 371.8C213.933 373.8 212.933 375.533 211.6 377C210.4 378.333 208.733 379 206.6 379H180C177.867 379 175.933 378.533 174.2 377.6C172.467 376.667 171.333 375.133 170.8 373L161.6 340.4C161.2 339.067 160.667 338.2 160 337.8C159.467 337.267 158.8 337 158 337H156.2C155.4 337 154.667 337.267 154 337.8C153.467 338.2 153 339.067 152.6 340.4L143.2 373C142.667 375 141.667 376.533 140.2 377.6C138.733 378.533 136.933 379 134.8 379H108.4C106.267 379 104.4 378.333 102.8 377C101.333 375.667 100.267 373.933 99.6 371.8L89.6 344.2C87.8667 339.267 86.8 335 86.4 331.4C86.1333 327.667 86 323.667 86 319.4V242.2C86 239.667 86.5333 237.867 87.6 236.8C88.8 235.6 90.6667 235 93.2 235H124C126.533 235 128.333 235.6 129.4 236.8C130.6 237.867 131.2 239.667 131.2 242.2V315.8L142.8 290.6C143.867 288.333 145.267 286.733 147 285.8C148.733 284.867 150.867 284.4 153.4 284.4H161.8C164.333 284.4 166.467 284.867 168.2 285.8C169.933 286.733 171.333 288.333 172.4 290.6L184 315.8V242.2C184 239.667 184.533 237.867 185.6 236.8C186.8 235.6 188.667 235 191.2 235ZM349.811 379H301.011C284.344 379 271.944 375.667 263.811 369C255.811 362.333 251.811 352.067 251.811 338.2V276C251.811 262.133 255.811 251.867 263.811 245.2C271.944 238.4 284.344 235 301.011 235H349.811C352.344 235 354.144 235.6 355.211 236.8C356.411 237.867 357.011 239.667 357.011 242.2V266.4C357.011 268.933 356.411 270.8 355.211 272C354.144 273.067 352.344 273.6 349.811 273.6H309.611C305.478 273.6 302.411 274.467 300.411 276.2C298.411 277.8 297.411 280.267 297.411 283.6V331.2C297.411 334.533 298.411 337 300.411 338.6C302.411 340.067 305.478 340.8 309.611 340.8H349.811C352.344 340.8 354.144 341.4 355.211 342.6C356.411 343.667 357.011 345.467 357.011 348V371.8C357.011 374.333 356.411 376.2 355.211 377.4C354.144 378.467 352.344 379 349.811 379Z" fill="#D8C4B6"/>
<path d="M202.2 235H232C234.533 235 236.333 235.6 237.4 236.8C238.6 237.867 239.2 239.667 239.2 242.2V319.8C239.2 324.067 239 328.067 238.6 331.8C238.333 335.4 237.333 339.667 235.6 344.6L225.6 371.8C224.933 373.8 223.933 375.533 222.6 377C221.4 378.333 219.733 379 217.6 379H191C188.867 379 186.933 378.533 185.2 377.6C183.467 376.667 182.333 375.133 181.8 373L172.6 340.4C172.2 339.067 171.667 338.2 171 337.8C170.467 337.267 169.8 337 169 337H167.2C166.4 337 165.667 337.267 165 337.8C164.467 338.2 164 339.067 163.6 340.4L154.2 373C153.667 375 152.667 376.533 151.2 377.6C149.733 378.533 147.933 379 145.8 379H119.4C117.267 379 115.4 378.333 113.8 377C112.333 375.667 111.267 373.933 110.6 371.8L100.6 344.2C98.8667 339.267 97.8 335 97.4 331.4C97.1333 327.667 97 323.667 97 319.4V242.2C97 239.667 97.5333 237.867 98.6 236.8C99.8 235.6 101.667 235 104.2 235H135C137.533 235 139.333 235.6 140.4 236.8C141.6 237.867 142.2 239.667 142.2 242.2V315.8L153.8 290.6C154.867 288.333 156.267 286.733 158 285.8C159.733 284.867 161.867 284.4 164.4 284.4H172.8C175.333 284.4 177.467 284.867 179.2 285.8C180.933 286.733 182.333 288.333 183.4 290.6L195 315.8V242.2C195 239.667 195.533 237.867 196.6 236.8C197.8 235.6 199.667 235 202.2 235ZM360.811 379H312.011C295.344 379 282.944 375.667 274.811 369C266.811 362.333 262.811 352.067 262.811 338.2V276C262.811 262.133 266.811 251.867 274.811 245.2C282.944 238.4 295.344 235 312.011 235H360.811C363.344 235 365.144 235.6 366.211 236.8C367.411 237.867 368.011 239.667 368.011 242.2V266.4C368.011 268.933 367.411 270.8 366.211 272C365.144 273.067 363.344 273.6 360.811 273.6H320.611C316.478 273.6 313.411 274.467 311.411 276.2C309.411 277.8 308.411 280.267 308.411 283.6V331.2C308.411 334.533 309.411 337 311.411 338.6C313.411 340.067 316.478 340.8 320.611 340.8H360.811C363.344 340.8 365.144 341.4 366.211 342.6C367.411 343.667 368.011 345.467 368.011 348V371.8C368.011 374.333 367.411 376.2 366.211 377.4C365.144 378.467 363.344 379 360.811 379Z" fill="#F5EFE7"/>
<path d="M173.8 226H97C94.4667 226 92.6 225.467 91.4 224.4C90.3333 223.2 89.8 221.333 89.8 218.8V89.2C89.8 86.6667 90.3333 84.8667 91.4 83.8C92.6 82.6 94.4667 82 97 82H160.8C173.867 82 183.533 84.5333 189.8 89.6C196.067 94.5333 199.2 102.2 199.2 112.6V122.2C199.2 127.8 198.2 132.4 196.2 136C194.333 139.467 191.4 142.067 187.4 143.8C195.933 144.6 202.267 147.533 206.4 152.6C210.533 157.667 212.6 165.067 212.6 174.8V193.2C212.6 204.4 209.4 212.667 203 218C196.733 223.333 187 226 173.8 226ZM134.8 116V137.6H151.8C154.333 137.6 156.2 136.933 157.4 135.6C158.733 134.267 159.4 132.267 159.4 129.6V124C159.4 121.333 158.733 119.333 157.4 118C156.2 116.667 154.333 116 151.8 116H134.8ZM134.8 168.4V192H160.8C163.333 192 165.2 191.333 166.4 190C167.733 188.667 168.4 186.667 168.4 184V176.2C168.4 173.533 167.733 171.6 166.4 170.4C165.2 169.067 163.333 168.4 160.8 168.4H134.8ZM344.722 226H281.722C265.055 226 252.655 222.667 244.522 216C236.522 209.333 232.522 199.067 232.522 185.2V122.8C232.522 108.933 236.522 98.6667 244.522 92C252.655 85.3333 265.055 82 281.722 82H331.722C334.255 82 336.055 82.6 337.122 83.8C338.322 84.8667 338.922 86.6667 338.922 89.2V113.4C338.922 115.933 338.322 117.8 337.122 119C336.055 120.067 334.255 120.6 331.722 120.6H290.122C285.989 120.6 282.922 121.467 280.922 123.2C278.922 124.8 277.922 127.267 277.922 130.6V178.4C277.922 181.733 278.655 184.2 280.122 185.8C281.722 187.4 284.055 188.2 287.122 188.2H306.522V157C306.522 154.467 307.055 152.667 308.122 151.6C309.322 150.4 311.189 149.8 313.722 149.8H344.722C347.255 149.8 349.055 150.4 350.122 151.6C351.322 152.667 351.922 154.467 351.922 157V218.8C351.922 221.333 351.322 223.2 350.122 224.4C349.055 225.467 347.255 226 344.722 226Z" fill="#D8C4B6"/>
<path d="M184.8 226H108C105.467 226 103.6 225.467 102.4 224.4C101.333 223.2 100.8 221.333 100.8 218.8V89.2C100.8 86.6667 101.333 84.8667 102.4 83.8C103.6 82.6 105.467 82 108 82H171.8C184.867 82 194.533 84.5333 200.8 89.6C207.067 94.5333 210.2 102.2 210.2 112.6V122.2C210.2 127.8 209.2 132.4 207.2 136C205.333 139.467 202.4 142.067 198.4 143.8C206.933 144.6 213.267 147.533 217.4 152.6C221.533 157.667 223.6 165.067 223.6 174.8V193.2C223.6 204.4 220.4 212.667 214 218C207.733 223.333 198 226 184.8 226ZM145.8 116V137.6H162.8C165.333 137.6 167.2 136.933 168.4 135.6C169.733 134.267 170.4 132.267 170.4 129.6V124C170.4 121.333 169.733 119.333 168.4 118C167.2 116.667 165.333 116 162.8 116H145.8ZM145.8 168.4V192H171.8C174.333 192 176.2 191.333 177.4 190C178.733 188.667 179.4 186.667 179.4 184V176.2C179.4 173.533 178.733 171.6 177.4 170.4C176.2 169.067 174.333 168.4 171.8 168.4H145.8ZM355.722 226H292.722C276.055 226 263.655 222.667 255.522 216C247.522 209.333 243.522 199.067 243.522 185.2V122.8C243.522 108.933 247.522 98.6667 255.522 92C263.655 85.3333 276.055 82 292.722 82H342.722C345.255 82 347.055 82.6 348.122 83.8C349.322 84.8667 349.922 86.6667 349.922 89.2V113.4C349.922 115.933 349.322 117.8 348.122 119C347.055 120.067 345.255 120.6 342.722 120.6H301.122C296.989 120.6 293.922 121.467 291.922 123.2C289.922 124.8 288.922 127.267 288.922 130.6V178.4C288.922 181.733 289.655 184.2 291.122 185.8C292.722 187.4 295.055 188.2 298.122 188.2H317.522V157C317.522 154.467 318.055 152.667 319.122 151.6C320.322 150.4 322.189 149.8 324.722 149.8H355.722C358.255 149.8 360.055 150.4 361.122 151.6C362.322 152.667 362.922 154.467 362.922 157V218.8C362.922 221.333 362.322 223.2 361.122 224.4C360.055 225.467 358.255 226 355.722 226Z" fill="#F5EFE7"/>
</svg>
