<svg width="600" height="180" viewBox="0 0 600 180" fill="none" xmlns="http://www.w3.org/2000/svg">
<rect width="600" height="180" rx="20" fill="#3E5879"/>
<path d="M30 26C30 23.2386 32.2386 21 35 21H569C571.761 21 574 23.2386 574 26V154C574 156.761 571.761 159 569 159H35C32.2386 159 30 156.761 30 154V26Z" fill="#213555"/>
<path d="M557.216 159H510.368C494.368 159 482.464 155.8 474.656 149.4C466.976 143 463.136 133.144 463.136 119.832V60.12C463.136 46.808 466.976 36.952 474.656 30.552C482.464 24.024 494.368 20.76 510.368 20.76H557.216C559.648 20.76 561.376 21.336 562.4 22.488C563.552 23.512 564.128 25.24 564.128 27.672V50.904C564.128 53.336 563.552 55.128 562.4 56.28C561.376 57.304 559.648 57.816 557.216 57.816H518.624C514.656 57.816 511.712 58.648 509.792 60.312C507.872 61.848 506.912 64.216 506.912 67.416V113.112C506.912 116.312 507.872 118.68 509.792 120.216C511.712 121.624 514.656 122.328 518.624 122.328H557.216C559.648 122.328 561.376 122.904 562.4 124.056C563.552 125.08 564.128 126.808 564.128 129.24V152.088C564.128 154.52 563.552 156.312 562.4 157.464C561.376 158.488 559.648 159 557.216 159Z" fill="#D8C4B6"/>
<path d="M404.512 20.76H433.12C435.552 20.76 437.28 21.336 438.304 22.488C439.456 23.512 440.032 25.24 440.032 27.672V102.168C440.032 106.264 439.84 110.104 439.456 113.688C439.2 117.144 438.24 121.24 436.576 125.976L426.976 152.088C426.336 154.008 425.376 155.672 424.096 157.08C422.944 158.36 421.344 159 419.296 159H393.76C391.712 159 389.856 158.552 388.192 157.656C386.528 156.76 385.44 155.288 384.928 153.24L376.096 121.944C375.712 120.664 375.2 119.832 374.56 119.448C374.048 118.936 373.408 118.68 372.64 118.68H370.912C370.144 118.68 369.44 118.936 368.8 119.448C368.288 119.832 367.84 120.664 367.456 121.944L358.432 153.24C357.92 155.16 356.96 156.632 355.552 157.656C354.144 158.552 352.416 159 350.368 159H325.024C322.976 159 321.184 158.36 319.648 157.08C318.24 155.8 317.216 154.136 316.576 152.088L306.976 125.592C305.312 120.856 304.288 116.76 303.904 113.304C303.648 109.72 303.52 105.88 303.52 101.784V27.672C303.52 25.24 304.032 23.512 305.056 22.488C306.208 21.336 308 20.76 310.432 20.76H340C342.432 20.76 344.16 21.336 345.184 22.488C346.336 23.512 346.912 25.24 346.912 27.672V98.328L358.048 74.136C359.072 71.96 360.416 70.424 362.08 69.528C363.744 68.632 365.792 68.184 368.224 68.184H376.288C378.72 68.184 380.768 68.632 382.432 69.528C384.096 70.424 385.44 71.96 386.464 74.136L397.6 98.328V27.672C397.6 25.24 398.112 23.512 399.136 22.488C400.288 21.336 402.08 20.76 404.512 20.76Z" fill="#D8C4B6"/>
<path d="M274.848 159H214.368C198.368 159 186.464 155.8 178.656 149.4C170.976 143 167.136 133.144 167.136 119.832V59.928C167.136 46.616 170.976 36.76 178.656 30.36C186.464 23.96 198.368 20.76 214.368 20.76H262.368C264.8 20.76 266.528 21.336 267.552 22.488C268.704 23.512 269.28 25.24 269.28 27.672V50.904C269.28 53.336 268.704 55.128 267.552 56.28C266.528 57.304 264.8 57.816 262.368 57.816H222.432C218.464 57.816 215.52 58.648 213.6 60.312C211.68 61.848 210.72 64.216 210.72 67.416V113.304C210.72 116.504 211.424 118.872 212.832 120.408C214.368 121.944 216.608 122.712 219.552 122.712H238.176V92.76C238.176 90.328 238.688 88.6 239.712 87.576C240.864 86.424 242.656 85.848 245.088 85.848H274.848C277.28 85.848 279.008 86.424 280.032 87.576C281.184 88.6 281.76 90.328 281.76 92.76V152.088C281.76 154.52 281.184 156.312 280.032 157.464C279.008 158.488 277.28 159 274.848 159Z" fill="#D8C4B6"/>
<path d="M110.888 159H37.16C34.728 159 32.936 158.488 31.784 157.464C30.76 156.312 30.248 154.52 30.248 152.088V27.672C30.248 25.24 30.76 23.512 31.784 22.488C32.936 21.336 34.728 20.76 37.16 20.76H98.408C110.952 20.76 120.232 23.192 126.248 28.056C132.264 32.792 135.272 40.152 135.272 50.136V59.352C135.272 64.728 134.312 69.144 132.392 72.6C130.6 75.928 127.784 78.424 123.944 80.088C132.136 80.856 138.216 83.672 142.184 88.536C146.152 93.4 148.136 100.504 148.136 109.848V127.512C148.136 138.264 145.064 146.2 138.92 151.32C132.904 156.44 123.56 159 110.888 159ZM73.448 53.4V74.136H89.768C92.2 74.136 93.992 73.496 95.144 72.216C96.424 70.936 97.064 69.016 97.064 66.456V61.08C97.064 58.52 96.424 56.6 95.144 55.32C93.992 54.04 92.2 53.4 89.768 53.4H73.448ZM73.448 103.704V126.36H98.408C100.84 126.36 102.632 125.72 103.784 124.44C105.064 123.16 105.704 121.24 105.704 118.68V111.192C105.704 108.632 105.064 106.776 103.784 105.624C102.632 104.344 100.84 103.704 98.408 103.704H73.448Z" fill="#D8C4B6"/>
<path d="M120.888 159H47.16C44.728 159 42.936 158.488 41.784 157.464C40.76 156.312 40.248 154.52 40.248 152.088V27.672C40.248 25.24 40.76 23.512 41.784 22.488C42.936 21.336 44.728 20.76 47.16 20.76H108.408C120.952 20.76 130.232 23.192 136.248 28.056C142.264 32.792 145.272 40.152 145.272 50.136V59.352C145.272 64.728 144.312 69.144 142.392 72.6C140.6 75.928 137.784 78.424 133.944 80.088C142.136 80.856 148.216 83.672 152.184 88.536C156.152 93.4 158.136 100.504 158.136 109.848V127.512C158.136 138.264 155.064 146.2 148.92 151.32C142.904 156.44 133.56 159 120.888 159ZM83.448 53.4V74.136H99.768C102.2 74.136 103.992 73.496 105.144 72.216C106.424 70.936 107.064 69.016 107.064 66.456V61.08C107.064 58.52 106.424 56.6 105.144 55.32C103.992 54.04 102.2 53.4 99.768 53.4H83.448ZM83.448 103.704V126.36H108.408C110.84 126.36 112.632 125.72 113.784 124.44C115.064 123.16 115.704 121.24 115.704 118.68V111.192C115.704 108.632 115.064 106.776 113.784 105.624C112.632 104.344 110.84 103.704 108.408 103.704H83.448Z" fill="#F5EFE7"/>
<path d="M284.973 159H224.493C208.493 159 196.589 155.8 188.781 149.4C181.101 143 177.261 133.144 177.261 119.832V59.928C177.261 46.616 181.101 36.76 188.781 30.36C196.589 23.96 208.493 20.76 224.493 20.76H272.493C274.925 20.76 276.653 21.336 277.677 22.488C278.829 23.512 279.405 25.24 279.405 27.672V50.904C279.405 53.336 278.829 55.128 277.677 56.28C276.653 57.304 274.925 57.816 272.493 57.816H232.557C228.589 57.816 225.645 58.648 223.725 60.312C221.805 61.848 220.845 64.216 220.845 67.416V113.304C220.845 116.504 221.549 118.872 222.957 120.408C224.493 121.944 226.733 122.712 229.677 122.712H248.301V92.76C248.301 90.328 248.813 88.6 249.837 87.576C250.989 86.424 252.781 85.848 255.213 85.848H284.973C287.405 85.848 289.133 86.424 290.157 87.576C291.309 88.6 291.885 90.328 291.885 92.76V152.088C291.885 154.52 291.309 156.312 290.157 157.464C289.133 158.488 287.405 159 284.973 159Z" fill="#F5EFE7"/>
<path d="M414.574 20.76H443.182C445.614 20.76 447.342 21.336 448.366 22.488C449.518 23.512 450.094 25.24 450.094 27.672V102.168C450.094 106.264 449.902 110.104 449.518 113.688C449.262 117.144 448.302 121.24 446.638 125.976L437.038 152.088C436.398 154.008 435.438 155.672 434.158 157.08C433.006 158.36 431.406 159 429.358 159H403.822C401.774 159 399.918 158.552 398.254 157.656C396.59 156.76 395.502 155.288 394.99 153.24L386.158 121.944C385.774 120.664 385.263 119.832 384.622 119.448C384.111 118.936 383.47 118.68 382.702 118.68H380.974C380.206 118.68 379.502 118.936 378.862 119.448C378.35 119.832 377.902 120.664 377.518 121.944L368.494 153.24C367.982 155.16 367.022 156.632 365.615 157.656C364.207 158.552 362.478 159 360.43 159H335.086C333.038 159 331.246 158.36 329.71 157.08C328.302 155.8 327.278 154.136 326.638 152.088L317.038 125.592C315.374 120.856 314.35 116.76 313.966 113.304C313.71 109.72 313.582 105.88 313.582 101.784V27.672C313.582 25.24 314.094 23.512 315.118 22.488C316.271 21.336 318.062 20.76 320.494 20.76H350.062C352.495 20.76 354.222 21.336 355.246 22.488C356.398 23.512 356.974 25.24 356.974 27.672V98.328L368.11 74.136C369.134 71.96 370.478 70.424 372.142 69.528C373.806 68.632 375.854 68.184 378.286 68.184H386.35C388.782 68.184 390.83 68.632 392.494 69.528C394.158 70.424 395.502 71.96 396.526 74.136L407.662 98.328V27.672C407.662 25.24 408.174 23.512 409.198 22.488C410.35 21.336 412.142 20.76 414.574 20.76Z" fill="#F5EFE7"/>
<path d="M566.841 159H519.993C503.993 159 492.089 155.8 484.281 149.4C476.601 143 472.761 133.144 472.761 119.832V60.12C472.761 46.808 476.601 36.952 484.281 30.552C492.089 24.024 503.993 20.76 519.993 20.76H566.841C569.273 20.76 571.001 21.336 572.025 22.488C573.177 23.512 573.753 25.24 573.753 27.672V50.904C573.753 53.336 573.177 55.128 572.025 56.28C571.001 57.304 569.273 57.816 566.841 57.816H528.249C524.281 57.816 521.337 58.648 519.417 60.312C517.497 61.848 516.537 64.216 516.537 67.416V113.112C516.537 116.312 517.497 118.68 519.417 120.216C521.337 121.624 524.281 122.328 528.249 122.328H566.841C569.273 122.328 571.001 122.904 572.025 124.056C573.177 125.08 573.753 126.808 573.753 129.24V152.088C573.753 154.52 573.177 156.312 572.025 157.464C571.001 158.488 569.273 159 566.841 159Z" fill="#F5EFE7"/>
</svg>
